0
SECTION
2
HEADER
9
$INSUNITS
70
4
9
$ACADVER
1
AC1014
9
$HANDSEED
5
FFFF
0
ENDSEC
0
SECTION
2
TABLES
0
TABLE
2
VPORT
5
8
100
AcDbSymbolTable
0
ENDTAB
0
TABLE
2
LTYPE
5
5
100
AcDbSymbolTable
0
LTYPE
5
14
100
AcDbSymbolTableRecord
100
AcDbLinetypeTableRecord
2
BYBLOCK
70
0
0
LTYPE
5
15
100
AcDbSymbolTableRecord
100
AcDbLinetypeTableRecord
2
BYLAYER
70
0
0
ENDTAB
0
TABLE
2
LAYER
5
2
100
AcDbSymbolTable
70
2
0
LAYER
5
50
100
AcDbSymbolTableRecord
100
AcDbLayerTableRecord
2
0
70
0
6
CONTINUOUS
0
ENDTAB
0
TABLE
2
STYLE
5
3
100
AcDbSymbolTable
70
1
0
STYLE
5
11
100
AcDbSymbolTableRecord
100
AcDbTextStyleTableRecord
2
STANDARD
70
0
0
ENDTAB
0
TABLE
2
VIEW
5
6
100
AcDbSymbolTable
70
0
0
ENDTAB
0
TABLE
2
UCS
5
7
100
AcDbSymbolTable
70
0
0
ENDTAB
0
TABLE
2
APPID
5
9
100
AcDbSymbolTable
70
2
0
APPID
5
12
100
AcDbSymbolTableRecord
100
AcDbRegAppTableRecord
2
ACAD
70
0
0
ENDTAB
0
TABLE
2
DIMSTYLE
5
A
100
AcDbSymbolTable
70
1
0
ENDTAB
0
TABLE
2
BLOCK_RECORD
5
1
100
AcDbSymbolTable
70
1
0
BLOCK_RECORD
5
1F
100
AcDbSymbolTableRecord
100
AcDbBlockTableRecord
2
*MODEL_SPACE
0
BLOCK_RECORD
5
1B
100
AcDbSymbolTableRecord
100
AcDbBlockTableRecord
2
*PAPER_SPACE
0
ENDTAB
0
ENDSEC
0
SECTION
2
BLOCKS
0
BLOCK
5
20
100
AcDbEntity
100
AcDbBlockBegin
2
*MODEL_SPACE
0
ENDBLK
5
21
100
AcDbEntity
100
AcDbBlockEnd
0
BLOCK
5
1C
100
AcDbEntity
100
AcDbBlockBegin
2
*PAPER_SPACE
0
ENDBLK
5
1D
100
AcDbEntity
100
AcDbBlockEnd
0
ENDSEC
0
SECTION
2
ENTITIES
0
LWPOLYLINE
5
100
100
AcDbEntity
8
0
100
AcDbPolyline
90
16
70
1
43
0.0
10
-29.362499999999976
20
256.41880000000003
42
0.41421356237309936
10
-28.762499999999982
20
255.81880000000007
10
-26.762499999999978
20
255.81880000000007
42
-0.41421356237309503
10
-25.862499999999997
20
254.91880000000003
10
-25.862500000000001
20
251.91880000000003
42
-0.41421356237308782
10
-26.762500000000014
20
251.0188
10
-28.762499999999989
20
251.01880000000006
42
0.41421356237312101
10
-29.362499999999994
20
250.41880000000003
10
-29.362499999999979
20
246.41880000000003
42
-0.41421356237310153
10
-30.762499999999982
20
245.01880000000006
10
-45.562499999999993
20
245.01880000000006
42
-0.41421356237310736
10
-47.462499999999999
20
246.91880000000003
10
-47.462499999999977
20
259.91879999999998
42
-0.41421356237309775
10
-45.562500000000021
20
261.81880000000001
10
-30.762499999999999
20
261.81880000000001
42
-0.41421356237309692
10
-29.362500000000029
20
260.41880000000003
0
LWPOLYLINE
5
101
100
AcDbEntity
8
0
100
AcDbPolyline
90
16
70
1
43
0.0
10
129.63700000000006
20
246.41880000000009
10
129.63699999999997
20
250.41880000000006
42
0.41421356237312101
10
129.03699999999992
20
251.01880000000006
10
127.03699999999999
20
251.01880000000008
42
-0.41421356237311241
10
126.137
20
251.91880000000012
10
126.137
20
254.91880000000003
42
-0.41421356237308343
10
127.03699999999999
20
255.81880000000007
10
129.03699999999998
20
255.81880000000007
42
0.41421356237311241
10
129.637
20
256.41880000000003
10
129.637
20
260.41880000000003
42
-0.4142135623730876
10
131.03699999999998
20
261.81880000000007
10
145.83700000000005
20
261.81880000000007
42
-0.41421356237308959
10
147.73699999999999
20
259.91880000000009
10
147.73699999999997
20
246.91880000000012
42
-0.41421356237309775
10
145.83700000000002
20
245.01880000000006
10
131.03699999999998
20
245.01880000000006
42
-0.41421356237311363
0
LWPOLYLINE
5
102
100
AcDbEntity
8
0
100
AcDbPolyline
90
4
70
1
43
0.0
10
-0.027999999999988034
20
211.50900000000004
10
-13.99799999999999
20
211.50900000000004
10
-13.99799999999999
20
225.47900000000004
10
-0.028000000000005798
20
225.47900000000004
0
LWPOLYLINE
5
103
100
AcDbEntity
8
0
100
AcDbPolyline
90
4
70
1
43
0.0
10
38.072000000000003
20
211.50900000000004
10
24.101999999999997
20
211.50900000000004
10
24.087000000000014
20
225.49400000000006
10
38.087000000000018
20
225.49400000000006
0
LWPOLYLINE
5
104
100
AcDbEntity
8
0
100
AcDbPolyline
90
36
70
1
43
0.0
10
5.0530000000000541
20
182.679
10
5.0530000000000541
20
187.37900000000002
10
19.023000000000039
20
187.37899999999999
10
19.023000000000021
20
182.67899999999997
10
20.54800000000002
20
182.67899999999997
10
20.54800000000002
20
185.90899999999999
10
27.298000000000027
20
185.90899999999999
10
27.298000000000027
20
182.67899999999997
10
28.122999999999987
20
182.67899999999997
10
28.122999999999969
20
179.89400000000001
10
27.297999999999991
20
179.89400000000001
10
27.298000000000009
20
173.60900000000001
10
25.573000000000015
20
173.60900000000001
10
25.573000000000015
20
172.40899999999999
10
22.273000000000014
20
172.40900000000005
10
22.273000000000014
20
173.60900000000001
10
20.548000000000002
20
173.60900000000001
10
20.547999999999984
20
178.07900000000001
10
19.023000000000003
20
178.07900000000001
10
19.023000000000021
20
173.40900000000002
10
5.0530000000000364
20
173.40900000000005
10
5.0530000000000541
20
178.07900000000004
10
3.5280000000000733
20
178.07900000000004
10
3.5280000000000555
20
173.60900000000001
10
1.8030000000000435
20
173.60900000000001
10
1.8030000000000435
20
172.40900000000005
10
-1.4969999999999573
20
172.40900000000005
10
-1.4969999999999573
20
173.60900000000001
10
-3.2219999999999516
20
173.60900000000001
10
-3.2219999999999338
20
179.89400000000003
10
-4.0469999999999118
20
179.89400000000003
10
-4.0469999999999118
20
182.679
10
-3.2219999999999338
20
182.679
10
-3.2219999999999338
20
185.90900000000002
10
3.5280000000000733
20
185.90900000000002
10
3.5280000000000733
20
182.679
0
LWPOLYLINE
5
105
100
AcDbEntity
8
0
100
AcDbPolyline
90
4
70
1
43
0.0
10
76.186999999999983
20
211.49400000000003
10
62.201999999999998
20
211.50900000000004
10
62.201999999999998
20
225.47900000000004
10
76.186999999999983
20
225.49400000000006
0
CIRCLE
5
106
100
AcDbEntity
8
0
100
AcDbCircle
10
-52.362499999999997
20
173.5
30
0
40
1.6000000000000014
210
-0
220
0
230
1
0
LWPOLYLINE
5
107
100
AcDbEntity
8
0
100
AcDbPolyline
90
4
70
1
43
0.0
10
57.122000000000014
20
249.55880000000005
10
43.136999999999986
20
249.54380000000003
10
43.136999999999986
20
263.54380000000003
10
57.136999999999972
20
263.54380000000003
0
LWPOLYLINE
5
108
100
AcDbEntity
8
0
100
AcDbPolyline
90
36
70
1
43
0.0
10
81.267000000000053
20
182.66400000000004
10
81.26700000000001
20
187.36400000000003
10
95.236999999999995
20
187.36400000000003
10
95.237000000000037
20
182.66400000000004
10
96.762000000000029
20
182.66400000000004
10
96.762000000000029
20
185.89400000000006
10
103.51200000000004
20
185.89400000000006
10
103.51200000000004
20
182.66400000000004
10
104.33700000000003
20
182.66400000000004
10
104.33700000000003
20
179.87900000000008
10
103.51200000000004
20
179.87900000000008
10
103.51200000000004
20
173.59400000000008
10
101.78700000000005
20
173.59400000000008
10
101.78700000000005
20
172.39400000000006
10
98.487000000000066
20
172.39400000000006
10
98.487000000000066
20
173.59400000000008
10
96.762000000000029
20
173.59400000000005
10
96.762000000000029
20
178.06400000000002
10
95.237000000000037
20
178.06400000000002
10
95.237000000000037
20
173.39400000000006
10
81.267000000000053
20
173.39400000000006
10
81.267000000000053
20
178.06400000000002
10
79.742000000000047
20
178.06400000000002
10
79.742000000000047
20
173.59400000000005
10
78.017000000000024
20
173.59400000000005
10
78.017000000000024
20
172.39400000000003
10
74.717000000000041
20
172.39400000000003
10
74.717000000000041
20
173.59400000000005
10
72.992000000000047
20
173.59400000000005
10
72.992000000000047
20
179.87900000000002
10
72.167000000000044
20
179.87900000000002
10
72.167000000000044
20
182.66400000000004
10
72.992000000000047
20
182.66400000000004
10
72.992000000000047
20
185.89400000000006
10
79.742000000000047
20
185.89400000000006
10
79.742000000000047
20
182.66400000000004
0
CIRCLE
5
109
100
AcDbEntity
8
0
100
AcDbCircle
10
-52.362500000000011
20
268.5
30
0
40
1.6000000000000014
210
-0
220
0
230
1
0
CIRCLE
5
110
100
AcDbEntity
8
0
100
AcDbCircle
10
152.66200000000001
20
268.50000000000006
30
0
40
1.6000000000000014
210
-0
220
0
230
1
0
CIRCLE
5
111
100
AcDbEntity
8
0
100
AcDbCircle
10
152.66200000000003
20
173.50000000000006
30
0
40
1.6000000000000014
210
-0
220
0
230
1
0
LWPOLYLINE
5
112
100
AcDbEntity
8
0
100
AcDbPolyline
90
4
70
1
43
0.0
10
114.27299999999997
20
211.50900000000007
10
100.30299999999998
20
211.50900000000007
10
100.30299999999998
20
225.47900000000004
10
114.27299999999997
20
225.47900000000004
0
LWPOLYLINE
5
113
100
AcDbEntity
8
0
100
AcDbPolyline
90
8
70
1
43
0.0
10
152.66200000000001
20
276.00000000000006
10
-52.362499999999997
20
276
42
0.41421356237309542
10
-59.862500000000011
20
268.5
10
-59.862499999999997
20
173.5
42
0.41421356237309503
10
-52.362499999999997
20
166
10
152.66200000000003
20
166.00000000000006
42
0.41421356237309503
10
160.16200000000003
20
173.50000000000006
10
160.16199999999998
20
268.50000000000006
42
0.41421356237309503
0
ENDSEC
0
SECTION
2
OBJECTS
0
DICTIONARY
5
C
100
AcDbDictionary
3
ACAD_GROUP
350
D
3
ACAD_MLINESTYLE
350
17
0
DICTIONARY
5
D
100
AcDbDictionary
0
DICTIONARY
5
1A
330
C
100
AcDbDictionary
0
DICTIONARY
5
17
100
AcDbDictionary
0
ENDSEC
0
EOF
