0
SECTION
2
HEADER
9
$INSUNITS
70
4
9
$ACADVER
1
AC1014
9
$HANDSEED
5
FFFF
0
ENDSEC
0
SECTION
2
TABLES
0
TABLE
2
VPORT
5
8
100
AcDbSymbolTable
0
ENDTAB
0
TABLE
2
LTYPE
5
5
100
AcDbSymbolTable
0
LTYPE
5
14
100
AcDbSymbolTableRecord
100
AcDbLinetypeTableRecord
2
BYBLOCK
70
0
0
LTYPE
5
15
100
AcDbSymbolTableRecord
100
AcDbLinetypeTableRecord
2
BYLAYER
70
0
0
ENDTAB
0
TABLE
2
LAYER
5
2
100
AcDbSymbolTable
70
2
0
LAYER
5
50
100
AcDbSymbolTableRecord
100
AcDbLayerTableRecord
2
0
70
0
6
CONTINUOUS
0
ENDTAB
0
TABLE
2
STYLE
5
3
100
AcDbSymbolTable
70
1
0
STYLE
5
11
100
AcDbSymbolTableRecord
100
AcDbTextStyleTableRecord
2
STANDARD
70
0
0
ENDTAB
0
TABLE
2
VIEW
5
6
100
AcDbSymbolTable
70
0
0
ENDTAB
0
TABLE
2
UCS
5
7
100
AcDbSymbolTable
70
0
0
ENDTAB
0
TABLE
2
APPID
5
9
100
AcDbSymbolTable
70
2
0
APPID
5
12
100
AcDbSymbolTableRecord
100
AcDbRegAppTableRecord
2
ACAD
70
0
0
ENDTAB
0
TABLE
2
DIMSTYLE
5
A
100
AcDbSymbolTable
70
1
0
ENDTAB
0
TABLE
2
BLOCK_RECORD
5
1
100
AcDbSymbolTable
70
1
0
BLOCK_RECORD
5
1F
100
AcDbSymbolTableRecord
100
AcDbBlockTableRecord
2
*MODEL_SPACE
0
BLOCK_RECORD
5
1B
100
AcDbSymbolTableRecord
100
AcDbBlockTableRecord
2
*PAPER_SPACE
0
ENDTAB
0
ENDSEC
0
SECTION
2
BLOCKS
0
BLOCK
5
20
100
AcDbEntity
100
AcDbBlockBegin
2
*MODEL_SPACE
0
ENDBLK
5
21
100
AcDbEntity
100
AcDbBlockEnd
0
BLOCK
5
1C
100
AcDbEntity
100
AcDbBlockBegin
2
*PAPER_SPACE
0
ENDBLK
5
1D
100
AcDbEntity
100
AcDbBlockEnd
0
ENDSEC
0
SECTION
2
ENTITIES
0
LWPOLYLINE
5
100
100
AcDbEntity
8
0
100
AcDbPolyline
90
12
70
1
43
0.0
10
-114.6780000000001
20
162.24099999999996
10
-114.6780000000001
20
140.971
10
-123.56061132367478
20
140.971
10
-123.56061132367478
20
144.12100000000001
10
-139.96438867632523
20
144.12100000000001
10
-139.97830265388114
20
140.971
10
-148.84799999999996
20
140.97100000000003
10
-148.84799999999996
20
162.24099999999999
10
-139.96249999999998
20
162.24099999999999
10
-139.96249999999998
20
160.89100000000002
10
-123.56250000000001
20
160.89100000000002
10
-123.56250000000001
20
162.24099999999999
0
LWPOLYLINE
5
101
100
AcDbEntity
8
0
100
AcDbPolyline
90
11
70
1
43
0.0
10
-140.05200000000005
20
57.392200000000003
42
0.41421356237311241
10
-139.30200000000002
20
58.142200000000017
10
-139.30200000000002
20
107.59300000000002
42
0.41421356237308116
10
-140.05200000000002
20
108.343
10
-142.827
20
108.343
10
-142.827
20
121.49100000000001
10
-158.797
20
121.49100000000001
10
-158.797
20
105.52100000000002
10
-142.00200000000001
20
105.52100000000002
10
-142.00200000000001
20
58.142200000000017
42
0.41421356237308815
10
-141.25200000000004
20
57.392200000000017
0
LWPOLYLINE
5
102
100
AcDbEntity
8
0
100
AcDbPolyline
90
12
70
1
43
0.0
10
-190.87800000000013
20
162.24099999999996
10
-190.87800000000013
20
140.971
10
-199.76061132367479
20
140.971
10
-199.76061132367479
20
144.12100000000001
10
-216.16438867632525
20
144.12100000000001
10
-216.17830265388119
20
140.971
10
-225.048
20
140.97100000000003
10
-225.048
20
162.24099999999999
10
-216.16250000000002
20
162.24099999999999
10
-216.16250000000002
20
160.89100000000002
10
-199.76250000000005
20
160.89100000000002
10
-199.76250000000005
20
162.24099999999999
0
LWPOLYLINE
5
103
100
AcDbEntity
8
0
100
AcDbPolyline
90
11
70
1
43
0.0
10
-120.697
20
108.343
10
-120.697
20
121.49100000000001
10
-104.72700000000002
20
121.49100000000001
10
-104.72700000000002
20
105.52100000000002
10
-121.52200000000001
20
105.52100000000002
10
-121.52200000000001
20
58.142200000000024
42
-0.41421356237310897
10
-122.27200000000002
20
57.392200000000003
10
-123.47200000000001
20
57.392199999999988
42
-0.41421356237308815
10
-124.22200000000002
20
58.142200000000017
10
-124.22200000000002
20
107.59300000000002
42
-0.41421356237308116
10
-123.47200000000002
20
108.343
0
LWPOLYLINE
5
104
100
AcDbEntity
8
0
100
AcDbPolyline
90
8
70
1
43
0.0
10
-80.675000000000026
20
135.80000000000007
42
0.41421356237309803
10
-82.42500000000004
20
134.05000000000004
10
-82.424999999999997
20
129.94999999999999
42
0.41421356237309503
10
-80.675000000000011
20
128.19999999999999
10
-71.725099999999998
20
128.19999999999999
42
0.41421356237309059
10
-69.975099999999998
20
129.94999999999999
10
-69.975099999999998
20
134.05000000000004
42
0.41421356237308909
10
-71.725099999999998
20
135.80000000000004
0
LWPOLYLINE
5
105
100
AcDbEntity
8
0
100
AcDbPolyline
90
8
70
1
43
0.0
10
-70.590100000000021
20
121.49400000000001
42
0.41421356237309059
10
-72.340100000000007
20
123.24399999999999
10
-72.439700000000002
20
123.24399999999999
42
0.41421356237309059
10
-74.189700000000002
20
121.49400000000003
10
-74.189700000000002
20
113.45600000000005
42
0.41421356237310392
10
-72.439699999999988
20
111.70600000000002
10
-72.340100000000007
20
111.70600000000005
42
0.41421356237309059
10
-70.590100000000021
20
113.45600000000003
0
LWPOLYLINE
5
106
100
AcDbEntity
8
0
100
AcDbPolyline
90
8
70
1
43
0.0
10
-256.59000000000003
20
134.35599999999999
42
0.41421356237307422
10
-258.34000000000003
20
132.60599999999994
10
-258.33999999999997
20
132.50600000000003
42
0.41421356237307422
10
-256.58999999999997
20
130.75600000000003
10
-256.49000000000001
20
130.75600000000003
42
0.41421356237309503
10
-254.73999999999995
20
132.50600000000003
10
-254.74000000000001
20
132.60599999999994
42
0.41421356237307422
10
-256.49000000000001
20
134.35599999999997
0
LWPOLYLINE
5
107
100
AcDbEntity
8
0
100
AcDbPolyline
90
22
70
1
43
0.0
10
-257.36200000000002
20
87.831199999999995
10
-257.36200000000002
20
86.981200000000001
10
-248.26200000000003
20
86.981200000000001
42
-0.41421356237310253
10
-246.86200000000008
20
85.581199999999995
10
-246.86200000000002
20
80.981200000000001
10
-246.51200000000003
20
80.981199999999973
42
-0.41421356237312712
10
-245.86200000000005
20
80.331199999999995
10
-245.86200000000005
20
76.831200000000052
42
-0.41421356237318308
10
-246.51200000000003
20
76.181200000000018
10
-246.86200000000002
20
76.181200000000018
10
-246.86199999999999
20
71.581199999999995
42
-0.41421356237309503
10
-248.262
20
70.181200000000004
10
-257.36200000000002
20
70.18119999999999
10
-257.36200000000002
20
69.331200000000024
10
-260.16200000000003
20
69.331200000000024
10
-260.16200000000003
20
70.18119999999999
10
-265.56200000000001
20
70.181199999999976
42
-0.41421356237308549
10
-267.46199999999999
20
72.081199999999967
10
-267.46199999999999
20
85.081199999999981
42
-0.41421356237310875
10
-265.56200000000001
20
86.981200000000001
10
-260.16200000000003
20
86.981200000000001
10
-260.16200000000003
20
87.831199999999995
0
LWPOLYLINE
5
108
100
AcDbEntity
8
0
100
AcDbPolyline
90
8
70
1
43
0.0
10
-79.960099999999997
20
111.70600000000002
42
0.41421356237309803
10
-78.210099999999997
20
113.45600000000003
10
-78.210099999999997
20
121.49400000000001
42
0.41421356237309059
10
-79.960099999999997
20
123.244
10
-80.060000000000016
20
123.244
42
0.41421356237309503
10
-81.810000000000002
20
121.49400000000001
10
-81.810000000000002
20
113.45600000000002
42
0.41421356237308909
10
-80.060000000000016
20
111.70600000000002
0
LWPOLYLINE
5
109
100
AcDbEntity
8
0
100
AcDbPolyline
90
8
70
1
43
0.0
10
-265.96000000000009
20
113.45600000000005
42
0.41421356237312185
10
-264.21000000000004
20
111.70599999999999
10
-264.12700000000001
20
111.70600000000002
42
0.41421356237308021
10
-262.37700000000001
20
113.45600000000002
10
-262.37700000000001
20
121.494
42
0.41421356237310691
10
-264.12699999999995
20
123.24399999999997
10
-264.21000000000015
20
123.24400000000003
42
0.41421356237309803
10
-265.96000000000009
20
121.494
0
LWPOLYLINE
5
110
100
AcDbEntity
8
0
100
AcDbPolyline
90
8
70
1
43
0.0
10
-256.48999999999995
20
111.706
42
0.41421356237309803
10
-254.73999999999992
20
113.45599999999999
10
-254.74000000000001
20
121.494
42
0.41421356237310691
10
-256.48999999999995
20
123.24399999999997
10
-256.59000000000015
20
123.24400000000003
42
0.41421356237309803
10
-258.34000000000009
20
121.494
10
-258.34000000000003
20
113.45599999999999
42
0.41421356237308909
10
-256.59000000000003
20
111.70600000000002
0
LWPOLYLINE
5
111
100
AcDbEntity
8
0
100
AcDbPolyline
90
8
70
1
43
0.0
10
-264.20999999999998
20
134.35599999999999
42
0.41421356237309803
10
-265.95999999999998
20
132.60599999999997
10
-265.95999999999998
20
132.50600000000003
42
0.41421356237308909
10
-264.20999999999998
20
130.75600000000003
10
-264.11000000000001
20
130.75600000000003
42
0.41421356237310103
10
-262.35999999999996
20
132.50600000000006
10
-262.36000000000001
20
132.60599999999997
42
0.4142135623730861
10
-264.11000000000001
20
134.35599999999997
0
LWPOLYLINE
5
112
100
AcDbEntity
8
0
100
AcDbPolyline
90
22
70
1
43
0.0
10
-74.162500000000009
20
70.18119999999999
42
0.41421356237309914
10
-72.262500000000017
20
72.081199999999995
10
-72.262500000000017
20
85.081200000000024
42
0.41421356237309914
10
-74.162500000000023
20
86.981200000000001
10
-79.562500000000014
20
86.981200000000001
10
-79.562500000000014
20
87.831199999999967
10
-82.362499999999997
20
87.831199999999967
10
-82.362499999999997
20
86.981200000000001
10
-91.46250000000002
20
86.981200000000001
42
0.41421356237309503
10
-92.862500000000011
20
85.58120000000001
10
-92.862500000000011
20
80.981199999999973
10
-93.212500000000006
20
80.981199999999973
42
0.41421356237313511
10
-93.862500000000011
20
80.331199999999939
10
-93.862500000000011
20
76.831199999999995
42
0.41421356237309104
10
-93.212500000000006
20
76.18119999999999
10
-92.862500000000011
20
76.18119999999999
10
-92.862500000000011
20
71.581199999999995
42
0.41421356237309692
10
-91.46250000000002
20
70.18119999999999
10
-82.362499999999997
20
70.18119999999999
10
-82.362499999999997
20
69.331199999999995
10
-79.562500000000014
20
69.331199999999995
10
-79.562500000000014
20
70.18119999999999
0
CIRCLE
5
113
100
AcDbEntity
8
0
100
AcDbCircle
10
-272.387
20
63.500000000000007
30
0
40
1.6000000000000014
210
0
220
-0
230
1
0
CIRCLE
5
114
100
AcDbEntity
8
0
100
AcDbCircle
10
-67.362499999999997
20
63.500000000000007
30
0
40
1.6000000000000014
210
0
220
-0
230
1
0
CIRCLE
5
115
100
AcDbEntity
8
0
100
AcDbCircle
10
-272.387
20
158.5
30
0
40
1.6000000000000014
210
0
220
-0
230
1
0
LWPOLYLINE
5
116
100
AcDbEntity
8
0
100
AcDbPolyline
90
4
70
1
43
0.0
10
-161.87700000000001
20
67.47120000000001
10
-177.84700000000004
20
67.47120000000001
10
-177.84700000000004
20
83.441200000000009
10
-161.87700000000001
20
83.441200000000009
0
LWPOLYLINE
5
117
100
AcDbEntity
8
0
100
AcDbPolyline
90
4
70
1
43
0.0
10
-196.89700000000005
20
121.49100000000001
10
-180.92700000000002
20
121.49100000000001
10
-180.92700000000002
20
105.52100000000002
10
-196.89700000000005
20
105.52100000000002
0
CIRCLE
5
118
100
AcDbEntity
8
0
100
AcDbCircle
10
-67.362499999999997
20
158.5
30
0
40
1.6000000000000014
210
0
220
-0
230
1
0
LWPOLYLINE
5
119
100
AcDbEntity
8
0
100
AcDbPolyline
90
4
70
1
43
0.0
10
-219.02799999999999
20
105.52100000000002
10
-234.99799999999999
20
105.52100000000002
10
-234.99799999999999
20
121.49100000000001
10
-219.02799999999999
20
121.49100000000001
0
LWPOLYLINE
5
120
100
AcDbEntity
8
0
100
AcDbPolyline
90
8
70
1
43
0.0
10
-272.387
20
56.000000000000014
10
-67.362499999999983
20
56.000000000000014
42
0.41421356237309437
10
-59.862499999999997
20
63.500000000000007
10
-59.862499999999997
20
158.5
42
0.41421356237309503
10
-67.362499999999997
20
166
10
-272.387
20
166
42
0.41421356237309503
10
-279.887
20
158.5
10
-279.887
20
63.500000000000014
42
0.41421356237309542
0
ENDSEC
0
SECTION
2
OBJECTS
0
DICTIONARY
5
C
100
AcDbDictionary
3
ACAD_GROUP
350
D
3
ACAD_MLINESTYLE
350
17
0
DICTIONARY
5
D
100
AcDbDictionary
0
DICTIONARY
5
1A
330
C
100
AcDbDictionary
0
DICTIONARY
5
17
100
AcDbDictionary
0
ENDSEC
0
EOF
